<?xml version="1.0" encoding="UTF-8"?>
<svg xmlns="http://www.w3.org/2000/svg" xmlns:xlink="http://www.w3.org/1999/xlink" width="2100" height="2100" viewBox="0 0 2100 2100">
<rect x="-210" y="-210" width="2520" height="2520" fill="rgb(100%, 100%, 100%)" fill-opacity="1"/>
<path fill-rule="nonzero" fill="rgb(0%, 0%, 0%)" fill-opacity="1" d="M 323.628906 1662.539062 C 333.324219 1548.09375 363.472656 1466.042969 417.25 1407.707031 C 460.109375 1361.207031 559.21875 1311.863281 717.164062 1258.375 C 854.394531 1211.90625 865.035156 1206.90625 877.984375 1182.800781 C 901.105469 1139.769531 899.128906 1118.625 867.371094 1069.300781 C 774.871094 925.621094 730.113281 673.679688 772.632812 536.019531 C 785.707031 493.710938 797.785156 473.359375 827.503906 443.640625 C 882.105469 389.039062 927.675781 375 1050.230469 375 C 1143.308594 375 1149.230469 376.070312 1200.441406 401.25 C 1259.691406 430.429688 1288.980469 462.710938 1314.621094 527.070312 C 1328.308594 561.441406 1331.050781 586.140625 1330.828125 673.210938 C 1330.519531 807.070312 1307.550781 901.058594 1244.570312 1026.488281 C 1201.441406 1112.386719 1200.890625 1114.40625 1210.019531 1151.136719 C 1222.230469 1200.257812 1242.441406 1213.160156 1381.710938 1260.78125 C 1525.058594 1309.796875 1633.21875 1362.847656 1677.449219 1405.835938 C 1734.398438 1461.183594 1765.230469 1541.421875 1776.078125 1662.539062 L 1781.679688 1725 L 318.324219 1725 Z M 323.628906 1662.539062 "/>
</svg>
